 <svg
                  width="289"
                  height="63"
                  viewBox="0 0 289 63"
                  fill="none"
                  xmlns="http://www.w3.org/2000/svg"
                >
                  <g clip-path="url(#clip0_2_613)">
                    <path
                      d="M14.2893 41.8713C20.7911 41.8713 23.3273 37.901 23.3273 31.108C23.3273 24.3165 20.3613 19.581 14.4797 19.581H7.88789V41.8713H14.2893ZM0.953125 13.6507H15.3408C24.4734 13.6507 30.355 21.0167 30.355 31.108C30.355 36.6558 28.4895 41.5361 24.9033 44.5492C22.3686 46.6525 19.0688 47.849 14.7663 47.849H0.953125V13.6507ZM50.161 35.6057C50.161 30.8214 47.9144 27.5689 43.9456 27.5689C39.928 27.5689 37.7272 30.8214 37.7272 35.6057C37.7272 40.3883 39.928 43.592 43.9456 43.592C47.9144 43.592 50.161 40.3883 50.161 35.6057ZM31.1293 35.6057C31.1293 28.2868 36.3418 22.6429 43.9456 22.6429C51.548 22.6429 56.7605 28.2868 56.7605 35.6057C56.7605 42.9214 51.548 48.5668 43.9456 48.5668C36.3402 48.5668 31.1277 42.923 31.1277 35.6057M57.835 35.6057C57.835 28.2868 62.6176 22.6429 70.0767 22.6429C76.4384 22.6429 80.3585 26.3268 81.2196 31.6353H74.8594C74.4296 29.4832 72.7561 27.8555 70.3648 27.8555C66.4432 27.8555 64.4359 30.8702 64.4359 35.6057C64.4359 40.2451 66.2999 43.3543 70.2687 43.3543C72.8993 43.3543 74.7649 41.9674 75.1947 39.1935H81.4589C81.0291 44.406 76.9628 48.5668 70.4121 48.5668C62.6665 48.5668 57.835 42.923 57.835 35.6057ZM98.3919 47.8504V44.9805H98.2486C96.5751 47.2286 94.6624 48.5196 91.2194 48.5196C85.7676 48.5196 82.7071 45.0294 82.7071 39.6705V23.3121H89.1618V38.5701C89.1618 41.44 90.4543 43.019 93.2266 43.019C96.2871 43.019 98.1526 40.7237 98.1526 37.4712V23.3121H104.656V47.8504H98.3919ZM136.341 47.8504H142.843V23.3121H136.341V47.8504ZM136.341 19.8828H142.843V13.8015H136.341V19.8828ZM162.708 34.5037C162.708 30.9174 160.795 27.857 156.874 27.857C153.574 27.857 151.375 30.4388 151.375 34.5524C151.375 38.7133 153.574 41.1535 156.923 41.1535C161.035 41.1535 162.708 38.1402 162.708 34.5052M145.541 48.5668H151.994C152.521 50.0971 153.907 51.2934 156.92 51.2934C160.602 51.2934 162.372 49.524 162.372 46.1755V43.4961H162.228C160.792 45.1223 158.929 46.366 155.819 46.366C150.369 46.366 145.013 42.0619 145.013 34.6485C145.013 27.3296 149.412 22.6429 155.629 22.6429C158.689 22.6429 160.936 23.8379 162.419 25.8955H162.515V23.3121H168.779V45.9835C168.779 49.4279 167.678 51.7705 165.862 53.4456C163.804 55.3583 160.649 56.2194 157.016 56.2194C150.321 56.2194 146.208 53.3495 145.539 48.5668M177.93 26.6606H178.073C179.747 24.03 181.995 22.6429 185.342 22.6429C190.411 22.6429 193.805 26.4685 193.805 31.8258V47.849H187.302V32.783C187.302 30.1523 185.771 28.2868 183.046 28.2868C180.177 28.2868 178.073 30.5821 178.073 33.9306V47.849H171.569V23.3121H177.93V26.6606ZM121.521 27.2337C116.451 26.1362 114.06 25.3224 114.06 22.547C114.06 20.1084 116.498 18.5293 120.229 18.5293C123.633 18.5293 126.235 20.1267 126.768 23.3121H133.437C132.76 16.6714 127.832 13.0288 120.276 13.0288C112.675 13.0288 107.174 16.5206 107.174 23.2648C107.174 30.3916 112.769 32.0179 118.89 33.4048C124.102 34.6013 127.355 35.2703 127.355 38.6173C127.355 41.7754 124.246 43.019 120.708 43.019C115.831 43.019 113.487 41.3927 113.008 37.2791H106.218C106.458 44.5019 111.718 48.6141 120.994 48.6141C128.694 48.6141 134.288 44.7412 134.288 37.805C134.288 30.4388 128.55 28.7654 121.521 27.2337Z"
                      fill="#050038"
                    />
                  </g>
                  <defs>
                    <clipPath id="clip0_2_613">
                      <rect
                        width="287.938"
                        height="61.7009"
                        fill="white"
                        transform="translate(0.953125 0.688477)"
                      />
                    </clipPath>
                  </defs>
                </svg>