<svg
                  width="289"
                  height="63"
                  viewBox="0 0 289 63"
                  fill="none"
                  xmlns="http://www.w3.org/2000/svg"
                >
                  <g clip-path="url(#clip0_2_627)">
                    <path
                      d="M288.844 0.688477H0.90625V62.3894H288.844V0.688477Z"
                      fill="white"
                    />
                    <path
                      d="M5.10882 17.6802V21.422H0.90625V26.3012H5.10882V45.9155C5.10882 47.4037 6.63128 48.596 8.54565 48.596C10.46 48.596 12.0187 47.4127 12.0187 45.9246V26.3102H17.605V21.4311H12.0187V17.6802C12.0187 13.1669 15.5158 12.3344 20.3032 13.4109V8.53168C13.5622 7.00998 5.10882 7.71747 5.10882 17.6802ZM26.6342 26.3102H26.4895V21.4311H20.8971V45.9307C20.8971 47.4189 22.4045 48.6113 24.334 48.6113C26.2634 48.6113 27.7979 47.4189 27.7979 45.9307V33.5955C27.7979 27.777 31.5453 26.2981 36.0824 26.2981V20.809C31.9793 20.7876 28.1356 22.1568 26.6342 26.3102ZM74.9307 20.8212C68.268 20.8212 62.8716 24.1603 62.8716 30.7228C62.8716 34.2176 64.4061 36.7975 66.8511 38.4473C66.6702 38.5662 66.4953 38.6881 66.3235 38.8163C63.2937 41.082 62.9681 44.9884 65.7446 47.1201C64.3851 48.3398 62.4585 50.5233 62.4585 53.5667C62.4585 58.397 66.9204 61.5167 74.9276 61.5167C82.9348 61.5167 89.0488 57.7201 89.0488 51.8742C89.0488 46.0283 85.0331 43.7321 77.7072 43.7321H72.9167C69.5613 43.7321 69.8477 41.387 70.9541 40.3776C71.0114 40.3258 71.0718 40.2769 71.1381 40.2251C72.385 40.4902 73.6565 40.6191 74.9307 40.6094C81.5963 40.6094 86.9897 37.2549 86.9897 30.7137C87.0047 29.3593 86.7409 28.0164 86.2148 26.7707C87.2353 26.4884 88.2864 26.3358 89.3442 26.3164V21.4372C86.3807 21.4372 84.4693 21.6384 82.4435 22.6356C80.3904 21.4128 77.7766 20.8059 74.9307 20.8059V20.8212ZM71.2677 48.6204H77.7012C80.3421 48.6204 82.142 49.4499 82.142 51.8742C82.142 55.1311 79.3804 56.6315 74.9065 56.6315C68.0389 56.6161 68.4489 50.9075 71.2677 48.6051V48.6204ZM74.9307 35.7302C72.0817 35.7302 69.7664 34.611 69.7664 30.7199C69.7664 26.8287 72.0817 25.7095 74.9307 25.7095C77.7796 25.7095 80.0979 26.8256 80.0979 30.7199C80.0979 34.614 77.7856 35.7302 74.9307 35.7302ZM48.6209 20.8059C41.1321 20.8059 36.5618 25.493 36.5618 34.7055C36.5618 43.9181 41.1382 48.6051 48.6209 48.6051C56.1035 48.6051 60.6799 43.9181 60.6799 34.7055C60.6799 25.493 56.1125 20.8059 48.6209 20.8059ZM48.6209 43.7168C45.7689 43.7168 43.4565 42.5458 43.4565 34.7055C43.4565 26.8653 45.784 25.7004 48.6209 25.7004C51.4577 25.7004 53.7851 26.8683 53.7851 34.7055C53.7851 42.5428 51.4728 43.7168 48.6209 43.7168Z"
                      fill="#050038"
                    />
                  </g>
                  <defs>
                    <clipPath id="clip0_2_627">
                      <rect
                        width="287.938"
                        height="61.7009"
                        fill="white"
                        transform="translate(0.90625 0.688477)"
                      />
                    </clipPath>
                  </defs>
                </svg>