<svg
                  width="288"
                  height="63"
                  viewBox="0 0 288 63"
                  fill="none"
                  xmlns="http://www.w3.org/2000/svg"
                >
                  <g clip-path="url(#clip0_2_596)">
                    <path
                      d="M287.938 0.688477H0V62.3894H287.938V0.688477Z"
                      fill="white"
                    />
                    <path
                      d="M0.431196 20.2895C1.27465 18.6389 3.39616 17.8212 5.14323 18.4011C6.23599 18.7468 7.12241 19.6256 7.53984 20.6859C9.87245 26.2013 12.2155 31.7128 14.5472 37.2282C14.6112 37.1106 14.6724 36.9913 14.7258 36.8681C16.5178 32.6203 18.3241 28.3772 20.1247 24.1323C20.9873 22.1369 22.3818 20.2905 24.3324 19.2597C25.4166 18.6809 26.6296 18.3637 27.8503 18.2635C31.0092 17.9187 34.2216 19.4241 36.1942 21.8732C38.0272 20.3019 40.1429 18.9655 42.5224 18.4269C43.809 18.1298 45.1453 18.1871 46.4464 18.3466C48.073 18.5577 49.6806 19.1185 50.9884 20.1272C51.6475 20.6228 52.2148 21.2304 52.7277 21.8742C54.9868 19.6906 58.0378 18.2483 61.2081 18.2158C63.2284 18.1728 65.2706 18.7096 66.9709 19.8119C68.9281 21.0575 70.3761 23.0749 70.9025 25.3378C71.1604 26.3818 71.1719 27.464 71.169 28.5329C71.169 33.1179 71.1681 37.7029 71.1699 42.2879C71.1575 42.8983 71.1347 43.5172 70.9665 44.1085C70.6723 45.2405 69.9206 46.2911 68.8268 46.7611C67.287 47.4336 65.2572 47.1815 64.1377 45.8556C63.236 44.8364 63.0086 43.416 63.0478 42.0978C63.0498 37.8318 63.0478 33.5659 63.0487 29.2999C63.0478 28.1929 62.6409 27.0619 61.8251 26.2949C61.0792 25.5813 60.0389 25.2289 59.0159 25.2212C57.8792 25.1926 56.7033 25.5527 55.8666 26.3436C55.0623 27.0934 54.6306 28.2005 54.6382 29.2932C54.6382 33.6882 54.6391 38.0821 54.6373 42.477C54.6315 43.6157 54.3689 44.8001 53.6419 45.7037C53.0678 46.444 52.1938 46.9283 51.2701 47.061C50.2394 47.211 49.1247 47.0601 48.2583 46.4535C47.4779 45.9196 46.9612 45.0656 46.7186 44.163C46.4702 43.3061 46.5113 42.4054 46.5103 41.5237C46.5103 37.4478 46.5094 33.3729 46.5113 29.297C46.5017 28.2836 46.1684 27.251 45.4816 26.4926C44.7117 25.6272 43.533 25.2088 42.3915 25.2203C41.2424 25.2116 40.0551 25.5995 39.2413 26.4334C38.4618 27.2023 38.0845 28.3103 38.0864 29.3926C38.0864 33.819 38.0854 38.2465 38.0864 42.6729C38.0787 43.7904 37.7597 44.9424 37.0252 45.8049C36.4864 46.4488 35.7156 46.8833 34.8922 47.0334C33.7097 47.2521 32.3896 47.0506 31.4562 46.2492C30.4294 45.377 29.9882 43.9901 29.9843 42.6758C29.9805 37.2903 29.9843 31.9058 29.9824 26.5212C29.9929 26.1 29.7875 25.675 29.4245 25.4524C28.8696 25.0799 27.9955 25.2594 27.73 25.9023C25.2045 31.4042 22.6751 36.9044 20.1534 42.4083C19.6041 43.5535 19.0242 44.7131 18.1531 45.6531C17.5188 46.3389 16.6735 46.8318 15.7517 47.0028C14.3036 47.2798 12.6865 47.0811 11.5088 46.1354C10.265 45.1354 9.54769 43.6625 8.89242 42.2449C6.03825 36.0284 3.17455 29.8167 0.325168 23.5993C-0.13142 22.5533 -0.117093 21.2992 0.431196 20.2895Z"
                      fill="#050038"
                    />
                    <path
                      d="M166.767 19.1636C168.645 18.6526 170.637 18.5972 172.549 18.9506C174.67 19.3413 176.683 20.3357 178.255 21.8153C181.206 24.5548 182.595 28.6756 182.532 32.6415C182.481 33.5643 181.644 34.3753 180.714 34.3571C174.232 34.3591 167.749 34.3562 161.267 34.358C161.415 36.236 162.026 38.0949 163.097 39.6508C164.156 41.1936 165.712 42.3894 167.481 42.9999C169.307 43.6503 171.316 43.6866 173.199 43.2721C174.992 42.8737 176.652 41.9644 178.029 40.757C178.345 40.4876 178.636 40.1629 179.041 40.0234C179.741 39.7559 180.585 40.0425 181.017 40.6471C181.489 41.2623 181.448 42.2108 180.912 42.7754C179.59 44.1164 178.042 45.2608 176.3 45.9944C174.529 46.7481 172.595 47.0546 170.677 47.0642C168.659 47.0709 166.629 46.6526 164.808 45.7757C161.648 44.297 159.189 41.4658 158.066 38.1741C157.248 35.8596 157.049 33.3551 157.315 30.9241C157.699 27.556 159.208 24.2711 161.727 21.969C163.154 20.6527 164.893 19.6756 166.767 19.1636ZM166.774 22.8135C165.135 23.5365 163.783 24.827 162.868 26.3573C161.946 27.8645 161.442 29.6002 161.249 31.3482C161.716 31.3807 162.185 31.3577 162.654 31.3644C167.941 31.3664 173.228 31.3597 178.514 31.3673C178.523 30.9089 178.429 30.4579 178.358 30.0071C178.028 28.1894 177.334 26.4041 176.154 24.9655C175.105 23.6693 173.616 22.738 171.991 22.3645C170.263 21.9738 168.4 22.0837 166.774 22.8135Z"
                      fill="#050038"
                    />
                    <path
                      d="M74.387 18.869C75.0557 18.6836 75.8389 18.827 76.3375 19.3284C76.6279 19.6017 76.8342 19.9531 76.968 20.3266C79.2796 27.0112 81.5844 33.6986 83.8865 40.3869C84.217 39.5912 84.4568 38.7593 84.7577 37.9512C86.7875 32.0776 88.822 26.2069 90.8624 20.3371C91.0887 19.6561 91.5998 19.0123 92.3295 18.8528C93.0451 18.7038 93.8694 18.784 94.4367 19.2836C94.7959 19.5883 95.0185 20.0162 95.1723 20.4547C97.3463 26.76 99.5117 33.0691 101.682 39.3763C101.81 39.7116 101.893 40.0651 102.055 40.3879C104.395 33.648 106.745 26.9108 109.096 20.1757C109.275 19.6952 109.591 19.2435 110.057 19.0065C110.753 18.6513 111.651 18.7429 112.263 19.2282C112.832 19.66 113.113 20.4355 112.936 21.13C112.806 21.641 112.608 22.1311 112.433 22.6267C109.902 29.6743 107.351 36.716 104.816 43.7626C104.615 44.2985 104.443 44.8459 104.219 45.3731C103.916 46.0417 103.342 46.6339 102.606 46.7954C101.898 46.9339 101.094 46.8259 100.549 46.3188C99.9531 45.7982 99.7725 44.9996 99.5166 44.2861C97.3635 38.0677 95.199 31.8531 93.0412 25.6366C93.0144 25.5831 92.96 25.4771 92.9333 25.4236C92.0793 27.7572 91.2884 30.1156 90.4555 32.4578C89.0351 36.5116 87.6166 40.5665 86.201 44.6232C86.0052 45.1849 85.8294 45.7876 85.3881 46.2156C84.8045 46.8451 83.8368 46.9836 83.043 46.7352C82.2693 46.4869 81.7363 45.7809 81.4775 45.0378C78.7342 37.3771 75.9736 29.723 73.2322 22.0613C73.0803 21.62 72.8854 21.1748 72.9093 20.6992C72.9046 19.8453 73.5761 19.0772 74.387 18.869Z"
                      fill="#050038"
                    />
                    <path
                      d="M122.909 18.887C125.084 18.7351 127.3 18.7218 129.432 19.2347C131.04 19.6178 132.594 20.3265 133.837 21.4307C135.321 22.7078 136.267 24.5219 136.689 26.4169C137.165 28.3933 137.012 30.4364 137.038 32.4491C137.038 36.5899 137.036 40.7307 137.039 44.8725C137.053 45.4885 136.779 46.1133 136.286 46.4906C135.699 46.9471 134.857 46.9883 134.189 46.6921C133.561 46.4132 133.147 45.7446 133.14 45.0626C133.131 44.179 133.155 43.2954 133.13 42.4118C132.143 43.6154 130.99 44.6987 129.627 45.4657C127.772 46.5384 125.622 47.0589 123.485 47.0647C121.325 47.1172 119.134 46.6291 117.243 45.5689C115.708 44.7034 114.394 43.3862 113.696 41.7528C112.973 40.1032 112.906 38.2243 113.265 36.4762C113.643 34.6708 114.719 33.0355 116.208 31.9504C118.088 30.5644 120.421 29.9464 122.716 29.7248C126.215 29.4401 129.764 29.8156 133.135 30.7947C133.195 29.0151 133.041 27.1314 132.073 25.5859C131.292 24.2878 129.986 23.3679 128.557 22.9103C127.386 22.5283 126.147 22.3802 124.919 22.4041C123.247 22.3784 121.553 22.5541 119.968 23.111C119.455 23.2791 118.97 23.5188 118.465 23.7041C117.786 23.9506 116.991 23.707 116.53 23.1644C115.832 22.3936 116.003 20.9665 116.962 20.487C118.822 19.5892 120.849 19.0399 122.909 18.887ZM121.692 33.0623C120.345 33.4311 119.016 34.1073 118.161 35.245C117.289 36.3721 117.029 37.8823 117.251 39.2683C117.457 40.5559 118.231 41.7203 119.298 42.4615C120.968 43.6546 123.11 43.9804 125.118 43.8007C127.186 43.6183 129.244 42.877 130.821 41.5026C132.203 40.3152 133.118 38.57 133.183 36.7379C133.194 35.7646 133.187 34.7912 133.186 33.8188C131.479 33.305 129.723 32.9658 127.952 32.7834C125.869 32.5914 123.731 32.513 121.692 33.0623Z"
                      fill="#050038"
                    />
                    <path
                      d="M141.985 20.7943C141.969 19.7436 142.875 18.7683 143.932 18.7464C145.025 18.6718 146.046 19.6032 146.07 20.6997C146.087 22.2672 146.07 23.8366 146.076 25.4051C146.414 24.8253 146.693 24.2111 147.088 23.6647C148.757 21.2414 151.37 19.4284 154.283 18.9039C155.031 18.796 155.864 18.6546 156.55 19.0654C157.756 19.7445 157.846 21.7056 156.734 22.5156C156.255 22.9082 155.622 22.9416 155.039 23.0323C152.962 23.3963 150.96 24.3448 149.471 25.856C148.232 27.071 147.358 28.626 146.823 30.2699C146.248 32.0475 146.041 33.9293 146.076 35.793C146.076 38.7541 146.075 41.7153 146.076 44.6764C146.083 45.2409 145.876 45.815 145.471 46.2143C144.978 46.7339 144.188 46.9288 143.503 46.7358C142.831 46.5744 142.274 46.0318 142.079 45.3727C141.948 44.9944 141.99 44.5904 141.986 44.1988C141.986 36.3976 141.987 28.5964 141.985 20.7943Z"
                      fill="#050038"
                    />
                  </g>
                  <defs>
                    <clipPath id="clip0_2_596">
                      <rect
                        width="287.938"
                        height="61.7009"
                        fill="white"
                        transform="translate(0 0.688477)"
                      />
                    </clipPath>
                  </defs>
                </svg>