<svg width="134" height="46" viewBox="0 0 134 46" fill="none" xmlns="http://www.w3.org/2000/svg">
<g clip-path="url(#clip0_2_751)">
<path d="M126.179 0.819336H7.44401C3.58952 0.819336 0.464844 3.94402 0.464844 7.7985V37.5763C0.464844 41.4308 3.58952 44.5554 7.44401 44.5554H126.179C130.034 44.5554 133.158 41.4308 133.158 37.5763V7.7985C133.158 3.94402 130.034 0.819336 126.179 0.819336Z" fill="#050038"/>
<path d="M27.6593 23.0234C27.6713 22.0914 27.9189 21.1775 28.379 20.3669C28.8391 19.5562 29.4968 18.8751 30.2908 18.3869C29.7864 17.6665 29.1209 17.0736 28.3473 16.6554C27.5736 16.2372 26.713 16.0051 25.834 15.9775C23.9589 15.7807 22.141 17.0996 21.1854 17.0996C20.2114 17.0996 18.7402 15.9971 17.156 16.0297C16.1312 16.0628 15.1325 16.3607 14.2573 16.8946C13.3819 17.4285 12.6598 18.1799 12.1613 19.0758C10.0017 22.8148 11.6125 28.31 13.6813 31.3324C14.7163 32.8123 15.9259 34.4655 17.5087 34.4069C19.0576 34.3426 19.6362 33.4192 21.5057 33.4192C23.358 33.4192 23.9007 34.4069 25.5157 34.3696C27.1777 34.3426 28.2248 32.883 29.2236 31.389C29.9673 30.3345 30.5395 29.1691 30.9191 27.9357C29.9535 27.5274 29.1295 26.8438 28.5499 25.9702C27.9702 25.0967 27.6604 24.0718 27.6593 23.0234Z" fill="white"/>
<path d="M24.6087 13.9896C25.5149 12.9017 25.9614 11.5034 25.8532 10.0918C24.4688 10.2371 23.1899 10.8989 22.2714 11.945C21.8224 12.4561 21.4785 13.0506 21.2594 13.6946C21.0402 14.3387 20.9501 15.0196 20.9943 15.6985C21.6868 15.7057 22.3718 15.5556 22.9979 15.2595C23.624 14.9635 24.1748 14.5293 24.6087 13.9896Z" fill="white"/>
<path d="M47.2391 30.6603H41.9535L40.6842 34.4083H38.4454L43.4518 20.5415H45.7778L50.7843 34.4083H48.5073L47.2391 30.6603ZM42.5009 28.9307H46.6906L44.6253 22.848H44.5675L42.5009 28.9307Z" fill="white"/>
<path d="M61.5965 29.3536C61.5965 32.4954 59.9149 34.5138 57.3774 34.5138C56.7346 34.5474 56.0953 34.3994 55.5328 34.0866C54.9702 33.7738 54.5071 33.3088 54.1965 32.745H54.1485V37.7525H52.0732V24.2981H54.0819V25.9796H54.1201C54.445 25.4186 54.9159 24.9561 55.4828 24.6413C56.0497 24.3266 56.6912 24.1714 57.3393 24.1923C59.9051 24.1923 61.5965 26.2206 61.5965 29.3536ZM59.4635 29.3536C59.4635 27.3068 58.4058 25.9611 56.7918 25.9611C55.2062 25.9611 54.1397 27.3351 54.1397 29.3536C54.1397 31.3907 55.2062 32.7549 56.7918 32.7549C58.4058 32.7549 59.4635 31.419 59.4635 29.3536Z" fill="white"/>
<path d="M72.7245 29.3536C72.7245 32.4954 71.0429 34.5138 68.5053 34.5138C67.8625 34.5474 67.2232 34.3994 66.6607 34.0865C66.0981 33.7738 65.6349 33.3088 65.3243 32.745H65.2763V37.7525H63.2012V24.2981H65.2098V25.9796H65.248C65.5729 25.4186 66.0438 24.956 66.6106 24.6413C67.1775 24.3266 67.8191 24.1714 68.4671 24.1923C71.0331 24.1923 72.7245 26.2206 72.7245 29.3536ZM70.5915 29.3536C70.5915 27.3068 69.5336 25.9611 67.9197 25.9611C66.3342 25.9611 65.2677 27.3351 65.2677 29.3536C65.2677 31.3907 66.3342 32.7549 67.9197 32.7549C69.5337 32.7549 70.5915 31.419 70.5915 29.3536Z" fill="white"/>
<path d="M80.0784 30.5449C80.2322 31.92 81.568 32.8229 83.3935 32.8229C85.1426 32.8229 86.401 31.92 86.401 30.6801C86.401 29.6037 85.6421 28.9593 83.845 28.5176L82.0478 28.0847C79.5015 27.4697 78.3194 26.2789 78.3194 24.3465C78.3194 21.9539 80.4044 20.3105 83.3651 20.3105C86.2952 20.3105 88.3039 21.9539 88.3716 24.3465H86.2767C86.1514 22.9626 85.0074 22.1274 83.3357 22.1274C81.664 22.1274 80.52 22.9725 80.52 24.2026C80.52 25.1829 81.2507 25.7598 83.038 26.2013L84.5657 26.5765C87.4108 27.2493 88.593 28.3922 88.593 30.4205C88.593 33.0148 86.5265 34.6396 83.2397 34.6396C80.1645 34.6396 78.0882 33.0529 77.9541 30.5448L80.0784 30.5449Z" fill="white"/>
<path d="M93.072 21.9058V24.2983H94.9945V25.9417H93.072V31.5151C93.072 32.381 93.4563 32.7845 94.3012 32.7845C94.5301 32.7805 94.7581 32.7645 94.9843 32.7365V34.3701C94.6046 34.4411 94.2184 34.4732 93.8313 34.466C91.7848 34.466 90.9865 33.6972 90.9865 31.7365V25.9417H89.5166V24.2983H90.9865V21.9058H93.072Z" fill="white"/>
<path d="M96.1064 29.3537C96.1064 26.1728 97.9806 24.1738 100.902 24.1738C103.833 24.1738 105.698 26.1727 105.698 29.3537C105.698 32.5433 103.843 34.5335 100.902 34.5335C97.962 34.5335 96.1064 32.5433 96.1064 29.3537ZM103.583 29.3537C103.583 27.1716 102.583 25.8837 100.902 25.8837C99.2201 25.8837 98.2216 27.1814 98.2216 29.3537C98.2216 31.5445 99.2201 32.8225 100.902 32.8225C102.583 32.8225 103.583 31.5445 103.583 29.3537Z" fill="white"/>
<path d="M107.408 24.2985H109.387V26.0192H109.435C109.569 25.4818 109.884 25.0068 110.327 24.6742C110.769 24.3416 111.314 24.1716 111.867 24.1927C112.107 24.1918 112.345 24.2178 112.578 24.2701V26.2111C112.276 26.1189 111.961 26.0765 111.646 26.0857C111.344 26.0735 111.044 26.1266 110.765 26.2416C110.486 26.3564 110.235 26.5303 110.03 26.7513C109.824 26.9723 109.669 27.2351 109.575 27.5217C109.481 27.8083 109.449 28.112 109.483 28.4117V34.4084H107.408V24.2985Z" fill="white"/>
<path d="M122.148 31.4387C121.869 33.274 120.082 34.5335 117.795 34.5335C114.854 34.5335 113.028 32.563 113.028 29.4017C113.028 26.2305 114.863 24.1738 117.707 24.1738C120.504 24.1738 122.263 26.0952 122.263 29.1607V29.8716H115.123V29.9971C115.09 30.3691 115.137 30.7439 115.26 31.0966C115.383 31.4494 115.579 31.7718 115.837 32.0426C116.094 32.3135 116.406 32.5265 116.751 32.6676C117.098 32.8085 117.47 32.8744 117.843 32.8607C118.333 32.9066 118.826 32.7931 119.246 32.5368C119.667 32.2806 119.994 31.8955 120.178 31.4387H122.148ZM115.133 28.4213H120.187C120.206 28.0867 120.155 27.752 120.038 27.4379C119.922 27.124 119.741 26.8374 119.508 26.5965C119.275 26.3556 118.995 26.1654 118.685 26.0378C118.375 25.9103 118.042 25.8482 117.707 25.8553C117.369 25.8534 117.034 25.9182 116.722 26.0464C116.409 26.1745 116.125 26.3633 115.885 26.6019C115.646 26.8404 115.456 27.1241 115.327 27.4364C115.198 27.7486 115.132 28.0834 115.133 28.4213V28.4213Z" fill="white"/>
<path d="M42.2407 10.1037C42.6757 10.0726 43.1122 10.1383 43.5189 10.2962C43.9254 10.4541 44.2919 10.7003 44.5918 11.0171C44.8917 11.3337 45.1177 11.713 45.2532 12.1277C45.3887 12.5423 45.4306 12.9818 45.3758 13.4145C45.3758 15.5431 44.2253 16.7667 42.2407 16.7667H39.8339V10.1037H42.2407ZM40.8687 15.8244H42.125C42.4359 15.843 42.7471 15.792 43.0357 15.6752C43.3244 15.5584 43.5834 15.3787 43.7939 15.1491C44.0044 14.9195 44.161 14.646 44.2524 14.3483C44.3439 14.0505 44.3677 13.7362 44.3223 13.4281C44.3645 13.1212 44.3381 12.8088 44.2453 12.5132C44.1526 12.2177 43.9955 11.9463 43.7855 11.7186C43.5755 11.4909 43.3177 11.3124 43.0306 11.196C42.7435 11.0796 42.4343 11.0281 42.125 11.0454H40.8687V15.8244Z" fill="white"/>
<path d="M46.5444 14.2506C46.5128 13.9202 46.5507 13.5867 46.6554 13.2717C46.7602 12.9568 46.9297 12.6672 47.1529 12.4216C47.3761 12.1759 47.6483 11.9797 47.9519 11.8453C48.2554 11.711 48.5837 11.6416 48.9157 11.6416C49.2477 11.6416 49.576 11.711 49.8795 11.8453C50.1831 11.9797 50.4552 12.1759 50.6785 12.4216C50.9017 12.6672 51.0712 12.9568 51.176 13.2717C51.2808 13.5867 51.3186 13.9202 51.287 14.2506C51.3192 14.5813 51.2819 14.9152 51.1773 15.2308C51.0728 15.5462 50.9034 15.8364 50.6801 16.0825C50.4568 16.3286 50.1845 16.5253 49.8806 16.6599C49.5767 16.7945 49.2481 16.864 48.9157 16.864C48.5834 16.864 48.2547 16.7945 47.9509 16.6599C47.6469 16.5253 47.3746 16.3286 47.1512 16.0825C46.928 15.8364 46.7586 15.5462 46.654 15.2308C46.5495 14.9152 46.5122 14.5813 46.5444 14.2506ZM50.2663 14.2506C50.2663 13.1606 49.7766 12.5232 48.9173 12.5232C48.0548 12.5232 47.5695 13.1606 47.5695 14.2506C47.5695 15.3493 48.0548 15.9817 48.9173 15.9817C49.7767 15.9817 50.2663 15.3449 50.2663 14.2506Z" fill="white"/>
<path d="M57.5915 16.7665H56.5621L55.5229 13.0632H55.4444L54.4095 16.7665H53.3899L52.0039 11.7383H53.0104L53.9112 15.5751H53.9853L55.0191 11.7383H55.971L57.0049 15.5751H57.0833L57.9797 11.7383H58.9721L57.5915 16.7665Z" fill="white"/>
<path d="M60.1367 11.7387H61.092V12.5375H61.1662C61.2919 12.2506 61.5041 12.0101 61.7731 11.8496C62.042 11.6889 62.3544 11.6163 62.6666 11.6417C62.9114 11.6233 63.157 11.6602 63.3855 11.7496C63.6139 11.839 63.8193 11.9787 63.9865 12.1583C64.1536 12.3379 64.2783 12.5529 64.351 12.7872C64.4239 13.0215 64.443 13.2691 64.407 13.5118V16.7669H63.4147V13.761C63.4147 12.953 63.0636 12.5511 62.3297 12.5511C62.1636 12.5434 61.9977 12.5717 61.8436 12.634C61.6894 12.6964 61.5506 12.7913 61.4365 12.9124C61.3225 13.0333 61.236 13.1777 61.1829 13.3352C61.1298 13.4928 61.1115 13.6601 61.1291 13.8254V16.767H60.1367V11.7387Z" fill="white"/>
<path d="M65.9893 9.77539H66.9816V16.7666H65.9893V9.77539Z" fill="white"/>
<path d="M68.3615 14.2507C68.33 13.9203 68.3678 13.5868 68.4726 13.2718C68.5774 12.9568 68.7469 12.6673 68.9702 12.4216C69.1935 12.1759 69.4656 11.9797 69.7692 11.8453C70.0728 11.711 70.4011 11.6416 70.7331 11.6416C71.0651 11.6416 71.3934 11.711 71.6969 11.8453C72.0006 11.9797 72.2727 12.1759 72.496 12.4216C72.7192 12.6673 72.8888 12.9568 72.9936 13.2718C73.0984 13.5868 73.1362 13.9203 73.1046 14.2507C73.1368 14.5815 73.0994 14.9153 72.9949 15.2308C72.8904 15.5463 72.7209 15.8365 72.4976 16.0826C72.2742 16.3287 72.0019 16.5253 71.698 16.6599C71.3941 16.7946 71.0655 16.8641 70.7331 16.8641C70.4008 16.8641 70.0721 16.7946 69.7682 16.6599C69.4642 16.5253 69.1919 16.3287 68.9685 16.0826C68.7452 15.8365 68.5758 15.5463 68.4713 15.2308C68.3668 14.9153 68.3293 14.5815 68.3615 14.2507ZM72.0834 14.2507C72.0834 13.1607 71.5937 12.5233 70.7345 12.5233C69.8718 12.5233 69.3866 13.1607 69.3866 14.2507C69.3866 15.3494 69.8719 15.9818 70.7345 15.9818C71.5937 15.9818 72.0834 15.345 72.0834 14.2507Z" fill="white"/>
<path d="M74.1484 15.3449C74.1484 14.4398 74.8224 13.918 76.0187 13.8439L77.3807 13.7654V13.3313C77.3807 12.8002 77.0295 12.5004 76.3512 12.5004C75.7973 12.5004 75.4134 12.7037 75.3033 13.0593H74.3425C74.444 12.1956 75.2564 11.6416 76.397 11.6416C77.6577 11.6416 78.3687 12.2692 78.3687 13.3313V16.7669H77.4134V16.0603H77.3348C77.1755 16.3137 76.9517 16.5204 76.6864 16.6592C76.421 16.7978 76.1236 16.8636 75.8246 16.8498C75.6135 16.8718 75.4001 16.8493 75.1983 16.7837C74.9964 16.7182 74.8105 16.611 74.6526 16.4692C74.4947 16.3274 74.3682 16.1541 74.2814 15.9605C74.1946 15.7668 74.1493 15.5572 74.1484 15.3449ZM77.3807 14.9153V14.4949L76.1528 14.5734C75.4603 14.6198 75.1463 14.8553 75.1463 15.2986C75.1463 15.7511 75.5389 16.0145 76.0787 16.0145C76.2369 16.0305 76.3967 16.0146 76.5485 15.9676C76.7004 15.9206 76.8413 15.8434 76.9627 15.7409C77.0842 15.6383 77.1838 15.5124 77.2556 15.3705C77.3274 15.2287 77.3699 15.0739 77.3807 14.9153Z" fill="white"/>
<path d="M79.6729 14.2502C79.6729 12.6614 80.4897 11.6548 81.7601 11.6548C82.0743 11.6404 82.3863 11.7157 82.6593 11.8718C82.9323 12.0281 83.1553 12.2588 83.302 12.537H83.3762V9.77539H84.3685V16.7666H83.4177V15.9721H83.3391C83.181 16.2484 82.9503 16.4763 82.6719 16.631C82.3936 16.7855 82.0782 16.8611 81.7601 16.8494C80.4809 16.8495 79.6729 15.8429 79.6729 14.2502ZM80.698 14.2502C80.698 15.3168 81.2007 15.9585 82.0415 15.9585C82.8779 15.9585 83.3948 15.3074 83.3948 14.2546C83.3948 13.2066 82.8725 12.5464 82.0415 12.5464C81.2061 12.5464 80.698 13.1925 80.698 14.2502Z" fill="white"/>
<path d="M88.474 14.2506C88.4423 13.9202 88.4802 13.5867 88.585 13.2717C88.6898 12.9568 88.8592 12.6672 89.0825 12.4216C89.3057 12.1759 89.5779 11.9797 89.8814 11.8453C90.185 11.711 90.5133 11.6416 90.8452 11.6416C91.1772 11.6416 91.5055 11.711 91.8091 11.8453C92.1126 11.9797 92.3847 12.1759 92.6081 12.4216C92.8313 12.6672 93.0008 12.9568 93.1058 13.2717C93.21 13.5867 93.2482 13.9202 93.2166 14.2506C93.2491 14.5813 93.211 14.9152 93.1068 15.2308C93.0023 15.5462 92.833 15.8364 92.6096 16.0825C92.3863 16.3286 92.114 16.5253 91.8101 16.6599C91.5063 16.7945 91.1776 16.864 90.8452 16.864C90.5129 16.864 90.1843 16.7945 89.8803 16.6599C89.5765 16.5253 89.3041 16.3286 89.0808 16.0825C88.8575 15.8364 88.6881 15.5462 88.5836 15.2308C88.4791 14.9152 88.4418 14.5813 88.474 14.2506ZM92.1958 14.2506C92.1958 13.1606 91.7062 12.5232 90.8469 12.5232C89.9844 12.5232 89.4991 13.1606 89.4991 14.2506C89.4991 15.3493 89.9844 15.9817 90.8469 15.9817C91.7062 15.9817 92.1958 15.3449 92.1958 14.2506Z" fill="white"/>
<path d="M94.5488 11.7387H95.5045V12.5375H95.5789C95.7046 12.2506 95.9167 12.0101 96.1857 11.8496C96.4546 11.6889 96.7673 11.6163 97.079 11.6417C97.3237 11.6233 97.5694 11.6602 97.7983 11.7496C98.0263 11.839 98.232 11.9787 98.3995 12.1583C98.566 12.3379 98.6907 12.5529 98.7633 12.7872C98.8368 13.0215 98.8554 13.2691 98.8201 13.5118V16.7669H97.8272V13.761C97.8272 12.953 97.4764 12.5511 96.7421 12.5511C96.5765 12.5434 96.4099 12.5717 96.2564 12.634C96.1019 12.6964 95.9633 12.7913 95.8488 12.9124C95.7353 13.0333 95.6487 13.1777 95.5957 13.3352C95.5427 13.4928 95.524 13.6601 95.5417 13.8254V16.767H94.5488V11.7387Z" fill="white"/>
<path d="M104.427 10.4863V11.7612H105.517V12.597H104.427V15.1826C104.427 15.7093 104.645 15.9399 105.138 15.9399C105.264 15.9395 105.391 15.9318 105.517 15.9171V16.7436C105.339 16.7755 105.157 16.7924 104.977 16.7943C103.873 16.7943 103.434 16.4061 103.434 15.4367V12.597H102.636V11.7611H103.434V10.4863H104.427Z" fill="white"/>
<path d="M106.872 9.77539H107.856V12.5463H107.934C108.066 12.2568 108.284 12.0149 108.558 11.8537C108.833 11.6925 109.15 11.6198 109.467 11.6456C109.71 11.6323 109.954 11.673 110.179 11.7646C110.405 11.8562 110.608 11.9965 110.774 12.1756C110.94 12.3546 111.063 12.568 111.137 12.8004C111.21 13.0328 111.231 13.2786 111.199 13.5201V16.7666H110.205V13.765C110.205 12.9618 109.831 12.5551 109.131 12.5551C108.959 12.5411 108.788 12.5645 108.627 12.6237C108.467 12.683 108.321 12.7766 108.201 12.8981C108.08 13.0195 107.988 13.1658 107.929 13.3267C107.871 13.4877 107.849 13.6593 107.864 13.8298V16.7666H106.872V9.77539Z" fill="white"/>
<path d="M116.984 15.4093C116.849 15.8689 116.556 16.2665 116.158 16.5323C115.76 16.7983 115.281 16.9157 114.805 16.8641C114.474 16.8728 114.144 16.8093 113.84 16.6781C113.536 16.5469 113.263 16.351 113.043 16.1041C112.821 15.8571 112.657 15.5651 112.561 15.2481C112.464 14.9312 112.437 14.5969 112.483 14.2687C112.438 13.9394 112.465 13.6045 112.562 13.2866C112.658 12.9687 112.822 12.6753 113.042 12.4262C113.261 12.1771 113.532 11.9782 113.836 11.8428C114.139 11.7075 114.468 11.6389 114.801 11.6417C116.199 11.6417 117.043 12.5976 117.043 14.1765V14.5228H113.493V14.5784C113.477 14.763 113.501 14.9487 113.561 15.1237C113.622 15.2988 113.718 15.4592 113.844 15.5949C113.97 15.7305 114.123 15.8382 114.293 15.9113C114.464 15.9843 114.647 16.021 114.832 16.0189C115.069 16.0474 115.31 16.0047 115.523 15.8961C115.736 15.7876 115.912 15.6181 116.028 15.4093H116.984ZM113.493 13.7888H116.033C116.046 13.6201 116.022 13.4506 115.966 13.2913C115.909 13.1319 115.819 12.9862 115.702 12.8635C115.586 12.7409 115.444 12.6439 115.288 12.5789C115.133 12.514 114.964 12.4824 114.795 12.4863C114.624 12.4841 114.453 12.5164 114.294 12.5811C114.135 12.6458 113.991 12.7417 113.869 12.863C113.748 12.9845 113.652 13.1289 113.587 13.2879C113.523 13.447 113.49 13.6173 113.493 13.7888Z" fill="white"/>
<path d="M126.179 0.819336H7.44401C3.58952 0.819336 0.464844 3.94402 0.464844 7.7985V37.5763C0.464844 41.4308 3.58952 44.5554 7.44401 44.5554H126.179C130.034 44.5554 133.158 41.4308 133.158 37.5763V7.7985C133.158 3.94402 130.034 0.819336 126.179 0.819336Z" stroke="#A6A6A6" stroke-width="0.930556"/>
</g>
<defs>
<clipPath id="clip0_2_751">
<rect width="134" height="45" fill="white" transform="translate(0 0.1875)"/>
</clipPath>
</defs>
</svg>
