<svg width="152" height="46" viewBox="0 0 152 46" fill="none" xmlns="http://www.w3.org/2000/svg">
<g clip-path="url(#clip0_2_778)">
<path d="M144.165 0.773438H8.01742C4.15482 0.773438 1.02356 3.9047 1.02356 7.7673V37.6078C1.02356 41.4704 4.15482 44.6017 8.01742 44.6017H144.165C148.027 44.6017 151.159 41.4704 151.159 37.6078V7.7673C151.159 3.9047 148.027 0.773438 144.165 0.773438Z" fill="#050038"/>
<path d="M53.6184 11.7695C53.6184 12.7071 53.3408 13.4537 52.7847 14.0107C52.1532 14.6728 51.33 15.0042 50.3182 15.0042C49.3491 15.0042 48.5251 14.6685 47.8475 13.9962C47.1688 13.3243 46.8301 12.4912 46.8301 11.4972C46.8301 10.5027 47.1688 9.67008 47.8475 8.99776C48.5251 8.3259 49.3491 7.98975 50.3182 7.98975C50.799 7.98975 51.2593 8.08374 51.6964 8.27129C52.1335 8.45929 52.4841 8.70883 52.7464 9.02137L52.1562 9.61188C51.7117 9.08079 51.0998 8.81547 50.3182 8.81547C49.6113 8.81547 49.0002 9.06378 48.4845 9.56074C47.9686 10.0583 47.7108 10.7034 47.7108 11.4972C47.7108 12.291 47.9686 12.9361 48.4845 13.4336C49.0002 13.9307 49.6113 14.1789 50.3182 14.1789C51.0679 14.1789 51.693 13.9293 52.1933 13.4293C52.5182 13.1035 52.7061 12.6508 52.7563 12.0694H50.3182V11.2629H53.5717C53.6031 11.4382 53.6184 11.6065 53.6184 11.7695Z" fill="white"/>
<path d="M53.619 11.7696H53.5071C53.5061 12.6858 53.2386 13.3973 52.7061 13.9316L52.7049 13.9325L52.7045 13.9334C52.093 14.5728 51.307 14.891 50.3186 14.8923C49.3754 14.891 48.5859 14.5693 47.9267 13.9171C47.269 13.2636 46.9436 12.4659 46.9424 11.4972C46.9436 10.5282 47.269 9.73088 47.9267 9.07786C48.5859 8.42524 49.3754 8.10308 50.3186 8.10173C50.785 8.10173 51.2292 8.19271 51.6528 8.3741C52.0767 8.55684 52.4116 8.79631 52.6612 9.09363L52.7469 9.02146L52.6678 8.94234L52.0776 9.5333L52.1567 9.61196L52.2429 9.54034C51.7777 8.98296 51.1248 8.70198 50.3186 8.70366C49.5856 8.70276 48.9409 8.96461 48.4076 9.48048C47.8691 9.99804 47.5986 10.6794 47.5994 11.4972C47.5986 12.3152 47.8691 12.9965 48.4076 13.5141C48.9409 14.03 49.5856 14.2918 50.3186 14.2909C51.0932 14.2923 51.7533 14.0295 52.273 13.5085C52.6201 13.1605 52.8168 12.6784 52.8684 12.079L52.8788 11.9575H50.4305V11.3749H53.5721V11.263L53.4619 11.2827C53.4926 11.4523 53.5071 11.6135 53.5071 11.7696H53.619H53.7309C53.7309 11.5995 53.7151 11.4248 53.6823 11.2429L53.6657 11.1511H50.2067V12.0694V12.1813H52.7568V12.0694L52.6454 12.0598C52.5961 12.6229 52.4168 13.0469 52.1147 13.3502C51.6339 13.8293 51.0438 14.0658 50.3186 14.0671C49.6381 14.0662 49.0606 13.8319 48.5628 13.3533C48.0698 12.8763 47.8244 12.2675 47.8232 11.4972C47.8244 10.7271 48.0698 10.1182 48.5628 9.64126C49.0606 9.16268 49.6381 8.92835 50.3186 8.92746C51.0753 8.92925 51.6467 9.17924 52.0711 9.68416L52.1498 9.77769L52.826 9.10057L52.8985 9.02806L52.8325 8.94973C52.5576 8.62197 52.1913 8.36179 51.741 8.16865C51.2899 7.97495 50.8139 7.87793 50.3186 7.87793C49.3238 7.87704 48.4653 8.22673 47.7689 8.91873C47.07 9.60939 46.7178 10.4775 46.7186 11.4972C46.7178 12.5166 47.07 13.3852 47.7694 14.0763C48.4653 14.7679 49.3238 15.1171 50.3186 15.1162C51.3546 15.1171 52.214 14.773 52.8661 14.0881L52.7853 14.0107L52.8644 14.0898C53.444 13.5106 53.7316 12.7282 53.7309 11.7696H53.619Z" fill="white"/>
<path d="M58.778 8.96497H55.7204V11.0938H58.4778V11.9006H55.7204V14.0295H58.778V14.8543H54.8584V8.14014H58.778V8.96497Z" fill="white"/>
<path d="M58.7767 8.96505V8.85315H55.6071V11.2058H58.3645V11.7884L55.6071 11.7888V14.1415H58.6648V14.7425H54.9689V8.25212H58.6648V8.96505H58.7767V8.85315V8.96505H58.8886V8.14022V8.02832H54.7451V14.9663H58.8886V14.0296V13.9176H55.8309V12.0126H58.5883V11.0939V10.982H55.8309V9.07695H58.8886V8.96505H58.7767Z" fill="white"/>
<path d="M62.4163 14.8543H61.553V8.96497H59.6777V8.14014H64.2915V8.96497H62.4163V14.8543Z" fill="white"/>
<path d="M62.415 14.8544V14.7425H61.6635V8.85315H59.7883V8.25212H64.1783V8.85315H62.3031V14.8544H62.415V14.7425V14.8544H62.5269V9.07695H64.4021V8.14022V8.02832H59.5645V8.96505V9.07695H61.4397V14.9663H62.415H62.5269V14.8544H62.415Z" fill="white"/>
<path d="M67.6289 14.8543V8.14014H68.4914V14.8543H67.6289Z" fill="white"/>
<path d="M67.6285 14.8544H67.7404V8.25212H68.3791V14.7425H67.6285V14.8544H67.7404H67.6285V14.9663H68.491H68.6029V8.02832H67.6285H67.5166V14.9663H67.6285V14.8544Z" fill="white"/>
<path d="M72.3186 14.8543H71.4553V8.96497H69.5801V8.14014H74.1938V8.96497H72.3186V14.8543Z" fill="white"/>
<path d="M72.3173 14.8544V14.7425H71.5659V8.85315H69.6907V8.25212H74.0806V8.85315H72.2054V14.8544H72.3173V14.7425V14.8544H72.4292V9.07695H74.3044V8.14022V8.02832H69.4669V8.96505V9.07695H71.3421V14.9663H72.3173H72.4292V14.8544H72.3173Z" fill="white"/>
<path d="M78.6406 13.4245C79.1375 13.9276 79.7456 14.1789 80.4646 14.1789C81.1837 14.1789 81.7922 13.9276 82.2884 13.4245C82.7858 12.9214 83.0349 12.2782 83.0349 11.4972C83.0349 10.7161 82.7858 10.073 82.2884 9.56991C81.7922 9.0668 81.1837 8.81547 80.4646 8.81547C79.7456 8.81547 79.1375 9.0668 78.6406 9.56991C78.1444 10.073 77.8953 10.7161 77.8953 11.4972C77.8953 12.2782 78.1444 12.9214 78.6406 13.4245ZM82.9265 13.9866C82.2664 14.6654 81.4455 15.0042 80.4646 15.0042C79.4828 15.0042 78.6624 14.6654 78.0037 13.9866C77.3431 13.3086 77.0145 12.4785 77.0145 11.4972C77.0145 10.5158 77.3431 9.68575 78.0037 9.00783C78.6624 8.32892 79.4828 7.98975 80.4646 7.98975C81.4403 7.98975 82.259 8.33071 82.9221 9.01219C83.5844 9.69368 83.9157 10.5219 83.9157 11.4972C83.9157 12.4785 83.5851 13.3086 82.9265 13.9866Z" fill="white"/>
<path d="M78.6414 13.4246L78.5617 13.5033C79.0772 14.0265 79.7202 14.2923 80.4655 14.2909C81.2103 14.2923 81.8542 14.0265 82.3686 13.5033C82.8875 12.9796 83.1484 12.302 83.1477 11.4972C83.1484 10.6926 82.8875 10.015 82.3686 9.49133C81.8542 8.96808 81.2103 8.70231 80.4655 8.70366C79.7202 8.70231 79.0772 8.96808 78.5617 9.49133C78.0442 10.015 77.7828 10.6926 77.7842 11.4972C77.7828 12.302 78.0442 12.9796 78.5617 13.5033L78.6414 13.4246L78.7209 13.3459C78.2463 12.8628 78.0088 12.2552 78.008 11.4972C78.0088 10.7394 78.2463 10.1318 78.7209 9.64863C79.1999 9.1657 79.7721 8.9288 80.4655 8.92746C81.1582 8.9288 81.7317 9.1657 82.2095 9.64863C82.6851 10.1318 82.9225 10.7394 82.9234 11.4972C82.9225 12.2552 82.6851 12.8628 82.2095 13.3459C81.7317 13.8289 81.1582 14.0658 80.4655 14.0671C79.7721 14.0658 79.1999 13.8289 78.7209 13.3459L78.6414 13.4246ZM82.9273 13.9867L82.8473 13.9089C82.2056 14.5663 81.421 14.891 80.4655 14.8924C79.5094 14.891 78.7248 14.5663 78.0844 13.9089L78.0814 13.9054L78.0844 13.9089C77.4441 13.2493 77.1281 12.4537 77.1272 11.4972C77.1281 10.5409 77.4441 9.74533 78.0844 9.08569C78.7248 8.42827 79.5094 8.10308 80.4655 8.10174C81.4149 8.10308 82.1977 8.42961 82.8429 9.0905C83.4855 9.75317 83.8033 10.5475 83.8046 11.4972C83.8033 12.4537 83.4863 13.2493 82.8473 13.9089L82.9273 13.9867L83.0078 14.0645C83.6861 13.3677 84.0292 12.5035 84.0284 11.4972C84.0292 10.4968 83.6848 9.63436 83.0033 8.9345C82.3214 8.23198 81.4673 7.8767 80.4655 7.87793C79.4583 7.8767 78.6016 8.2303 77.9241 8.93014V8.92969C77.2444 9.62684 76.9025 10.4911 76.9034 11.4972C76.9025 12.5035 77.2444 13.3677 77.9241 14.0648L77.9271 14.068L77.9241 14.0645C78.6016 14.7642 79.4583 15.1171 80.4655 15.1162C81.4721 15.1171 82.3288 14.7642 83.0078 14.0645L82.9273 13.9867Z" fill="white"/>
<path d="M85.127 14.8543V8.14014H86.177L89.44 13.3633H89.4771L89.44 12.0693V8.14014H90.3033V14.8543H89.4028L85.989 9.378H85.9518L85.989 10.6724V14.8543H85.127Z" fill="white"/>
<path d="M85.1274 14.8544H85.2393V8.25212H86.1152L89.3783 13.4753H89.4776H89.5925L89.5523 12.0677V8.25212H90.1918V14.7425H89.4654L86.0514 9.26618H85.9522H85.8372L85.8774 10.6743V14.7425H85.1274V14.8544H85.2393H85.1274V14.9663H85.9893H86.1012V10.6706L86.0641 9.37506L85.9522 9.37808V9.48998H85.9893V9.37808L85.8945 9.43761L89.3412 14.9663H90.3037H90.4156V8.02832H89.4404H89.3285V12.0708L89.3657 13.3663L89.4776 13.3634V13.2515H89.4404V13.3634L89.5353 13.304L86.2393 8.02832H85.1274H85.0155V14.9663H85.1274V14.8544Z" fill="white"/>
<path d="M120.22 33.8776H122.308V19.8885H120.22V33.8776ZM139.027 24.9277L136.634 30.9927H136.563L134.078 24.9277H131.828L135.554 33.4046L133.43 38.1198H135.609L141.349 24.9277H139.027ZM127.186 32.2887C126.501 32.2887 125.548 31.9468 125.548 31.1006C125.548 30.0209 126.736 29.6069 127.761 29.6069C128.68 29.6069 129.111 29.8049 129.67 30.0752C129.507 31.3708 128.391 32.2887 127.186 32.2887ZM127.438 24.6216C125.927 24.6216 124.361 25.2878 123.713 26.7635L125.566 27.5372C125.962 26.7635 126.7 26.5114 127.474 26.5114C128.553 26.5114 129.651 27.1595 129.67 28.3114V28.4552C129.291 28.2392 128.482 27.9153 127.491 27.9153C125.494 27.9153 123.46 29.0129 123.46 31.0647C123.46 32.9365 125.098 34.1425 126.933 34.1425C128.338 34.1425 129.111 33.5126 129.598 32.7748H129.67V33.8544H131.685V28.491C131.685 26.0078 129.832 24.6216 127.438 24.6216ZM114.533 26.6306H111.564V21.8355H114.533C116.094 21.8355 116.981 23.128 116.981 24.233C116.981 25.3171 116.094 26.6306 114.533 26.6306ZM114.48 19.8885H109.476V33.8776H111.564V28.5776H114.48C116.793 28.5776 119.069 26.9021 119.069 24.233C119.069 21.564 116.793 19.8885 114.48 19.8885ZM87.1968 32.2913C85.7543 32.2913 84.5465 31.0835 84.5465 29.4247C84.5465 27.7484 85.7543 26.5223 87.1968 26.5223C88.621 26.5223 89.7387 27.7484 89.7387 29.4247C89.7387 31.0835 88.621 32.2913 87.1968 32.2913ZM89.5944 25.711H89.5222C89.0537 25.1523 88.1519 24.6474 87.0163 24.6474C84.6366 24.6474 82.4555 26.7386 82.4555 29.4247C82.4555 32.0928 84.6366 34.1661 87.0163 34.1661C88.1519 34.1661 89.0537 33.6611 89.5222 33.0847H89.5944V33.7696C89.5944 35.5907 88.621 36.5642 87.0526 36.5642C85.7727 36.5642 84.9794 35.6444 84.6545 34.8694L82.834 35.6265C83.3568 36.8884 84.7451 38.439 87.0526 38.439C89.5043 38.439 91.5776 36.9964 91.5776 33.4812V24.936H89.5944V25.711ZM93.0196 33.8776H95.1106V19.8881H93.0196V33.8776ZM98.1935 29.2626C98.1394 27.4235 99.6184 26.4864 100.681 26.4864C101.511 26.4864 102.214 26.9008 102.448 27.4962L98.1935 29.2626ZM104.684 27.6763C104.288 26.6123 103.079 24.6474 100.61 24.6474C98.1572 24.6474 96.1205 26.5764 96.1205 29.4068C96.1205 32.0749 98.1394 34.1661 100.844 34.1661C103.025 34.1661 104.288 32.8319 104.811 32.0569L103.188 30.9751C102.647 31.7685 101.908 32.2913 100.844 32.2913C99.7797 32.2913 99.0235 31.8044 98.5358 30.8492L104.899 28.2169L104.684 27.6763ZM53.9831 26.1078V28.1268H58.8144C58.6702 29.2626 58.2916 30.0917 57.7146 30.6687C57.0118 31.372 55.912 32.147 53.9831 32.147C51.0083 32.147 48.6829 29.7494 48.6829 26.7749C48.6829 23.8003 51.0083 21.4023 53.9831 21.4023C55.5875 21.4023 56.7591 22.0334 57.6245 22.8447L59.0487 21.4207C57.841 20.2667 56.2363 19.3833 53.9831 19.3833C49.9085 19.3833 46.4834 22.7005 46.4834 26.7749C46.4834 30.8492 49.9085 34.1661 53.9831 34.1661C56.1826 34.1661 57.841 33.4454 59.1388 32.0928C60.4729 30.7588 60.8877 28.884 60.8877 27.3698C60.8877 26.9008 60.8518 26.4685 60.7792 26.1078H53.9831ZM66.3805 32.2913C64.938 32.2913 63.694 31.1014 63.694 29.4068C63.694 27.6942 64.938 26.5223 66.3805 26.5223C67.8225 26.5223 69.0665 27.6942 69.0665 29.4068C69.0665 31.1014 67.8225 32.2913 66.3805 32.2913ZM66.3805 24.6474C63.7482 24.6474 61.6027 26.6485 61.6027 29.4068C61.6027 32.147 63.7482 34.1661 66.3805 34.1661C69.0123 34.1661 71.1578 32.147 71.1578 29.4068C71.1578 26.6485 69.0123 24.6474 66.3805 24.6474ZM76.8022 32.2913C75.3602 32.2913 74.1161 31.1014 74.1161 29.4068C74.1161 27.6942 75.3602 26.5223 76.8022 26.5223C78.2442 26.5223 79.4883 27.6942 79.4883 29.4068C79.4883 31.1014 78.2442 32.2913 76.8022 32.2913ZM76.8022 24.6474C74.1699 24.6474 72.025 26.6485 72.025 29.4068C72.025 32.147 74.1699 34.1661 76.8022 34.1661C79.4341 34.1661 81.5794 32.147 81.5794 29.4068C81.5794 26.6485 79.4341 24.6474 76.8022 24.6474Z" fill="white"/>
<path d="M12.3176 36.5515L12.2344 36.4719C11.9087 36.1273 11.7166 35.5924 11.7166 34.8996V35.0626V10.3144C11.7166 10.3121 11.7166 10.3105 11.7166 10.3087C11.7166 10.3108 11.7166 10.3126 11.7166 10.3149V10.4783C11.7166 9.72821 11.9406 9.16306 12.3162 8.82422L26.1806 22.6883L12.3176 36.5515ZM11.7166 10.3074C11.7166 10.2458 11.7182 10.1859 11.7213 10.1269C11.7182 10.1854 11.7166 10.2458 11.7166 10.3074ZM11.7213 10.1242C11.7213 10.1234 11.7213 10.1225 11.7217 10.1216C11.7213 10.1225 11.7213 10.1234 11.7213 10.1242ZM11.7217 10.1163C11.7217 10.1159 11.7217 10.1155 11.7217 10.115C11.7217 10.1155 11.7217 10.1159 11.7217 10.1163Z" fill="url(#paint0_linear_2_778)"/>
<path d="M30.8022 27.4754L30.9077 27.4155L36.383 24.3046C36.905 24.0077 37.2528 23.648 37.4264 23.2673C37.2533 23.648 36.9053 24.0082 36.383 24.3049L30.9077 27.416L30.8022 27.4754ZM30.8036 27.3115L26.1815 22.6885L30.8032 18.0664L36.383 21.2364C37.0915 21.6391 37.4893 22.1579 37.5558 22.6881C37.5558 22.6885 37.5558 22.6894 37.5558 22.6902C37.4893 23.2192 37.0915 23.7385 36.383 24.141L30.8036 27.3115Z" fill="url(#paint1_linear_2_778)"/>
<path d="M13.3055 37.0796C12.9182 37.0796 12.5802 36.9537 12.3167 36.7159L12.3172 36.7155C12.5807 36.9533 12.919 37.0796 13.3064 37.0796C13.34 37.0796 13.3741 37.0787 13.4086 37.077C13.3736 37.0787 13.339 37.0796 13.3055 37.0796ZM13.3059 36.9157C12.9187 36.9161 12.5807 36.7898 12.3172 36.552V36.5516L26.1802 22.6885L30.8023 27.3113L14.5595 36.5402C14.1101 36.795 13.6843 36.9157 13.3059 36.9157ZM12.3133 36.7129C12.2887 36.6907 12.2647 36.667 12.2411 36.6425L12.3133 36.7129Z" fill="url(#paint2_linear_2_778)"/>
<path d="M26.1799 22.6887L12.3154 8.82457C12.579 8.58723 12.9165 8.46134 13.3033 8.46134C13.6828 8.46134 14.1089 8.58242 14.5592 8.83767L30.8015 18.0666L26.1799 22.6887ZM30.9061 17.9621L14.5592 8.67429C14.1089 8.41893 13.6828 8.29785 13.3033 8.29785C13.3016 8.29785 13.3004 8.29785 13.2985 8.29785C13.3007 8.29785 13.3024 8.29785 13.3051 8.29785C13.6837 8.29785 14.1094 8.41848 14.5592 8.67384L30.9061 17.9621Z" fill="url(#paint3_linear_2_778)"/>
<path d="M13.4081 37.0768C13.7599 37.0567 14.1494 36.9356 14.559 36.7035L30.8004 27.4751L14.559 36.7035C14.1497 36.936 13.7599 37.0567 13.4081 37.0768ZM12.3161 36.7157L12.3127 36.7127C12.3139 36.7136 12.3153 36.7148 12.3161 36.7157ZM12.2405 36.6423L12.2334 36.6354V36.6349C12.2361 36.6375 12.2382 36.64 12.2405 36.6423Z" fill="black"/>
<path d="M30.8018 27.4754L30.9072 27.4155L30.8018 27.4754Z" fill="url(#paint4_linear_2_778)"/>
<path d="M13.3058 37.0793C12.9185 37.0793 12.5801 36.953 12.3166 36.7152L12.3161 36.7156C12.3153 36.7147 12.3139 36.7135 12.3127 36.7126L12.2405 36.6423C12.2382 36.64 12.2361 36.6374 12.2334 36.6348L12.3166 36.5517C12.5801 36.7895 12.9181 36.9159 13.3053 36.9154C13.6838 36.9154 14.1096 36.7947 14.559 36.54L30.8017 27.311L30.9058 27.4151L30.8004 27.475L14.559 36.7034C14.1494 36.9355 13.7599 37.0566 13.4081 37.0767C13.3735 37.0784 13.3394 37.0793 13.3058 37.0793Z" fill="url(#paint5_linear_2_778)"/>
<path d="M12.2344 36.6353C11.9087 36.2907 11.7166 35.7557 11.7166 35.063V35.0625C11.7166 35.7557 11.9087 36.2902 12.2344 36.6348V36.6353Z" fill="black"/>
<path d="M12.2344 36.6348C11.9087 36.2903 11.7166 35.7557 11.7166 35.0625V34.8994C11.7166 35.5923 11.9087 36.1273 12.2344 36.4718L12.3176 36.5514L12.2344 36.6348Z" fill="url(#paint6_linear_2_778)"/>
<path d="M12.2334 36.6352L12.3166 36.5518V36.552L12.2334 36.6352Z" fill="url(#paint7_linear_2_778)"/>
<path d="M37.4268 23.2668C37.5127 23.0779 37.5561 22.8839 37.5561 22.6897C37.5561 22.6894 37.5561 22.689 37.5561 22.689C37.5561 22.8834 37.5127 23.0775 37.4268 23.2668Z" fill="black"/>
<path d="M30.9058 27.4152L30.8018 27.3111L36.3811 24.1407C37.0897 23.7382 37.4875 23.2189 37.5539 22.6899C37.5539 22.8841 37.5106 23.0781 37.4246 23.267C37.251 23.6477 36.9031 24.0075 36.3811 24.3042L30.9058 27.4152Z" fill="url(#paint8_linear_2_778)"/>
<path d="M37.5548 22.6885V22.688C37.5543 22.1027 37.1631 21.5174 36.3819 21.0733L30.9067 17.9623H30.9062L30.9067 17.9619L36.3819 21.0728C37.164 21.5169 37.5556 22.1031 37.5548 22.6885Z" fill="#404040"/>
<path d="M37.5544 22.6881C37.4879 22.1579 37.0902 21.639 36.3816 21.2364L30.8018 18.0665L30.9058 17.9624H30.9063L36.3816 21.0734C37.1627 21.5175 37.5539 22.1028 37.5544 22.6881Z" fill="url(#paint9_linear_2_778)"/>
<path d="M11.7166 10.3091C11.7166 10.3086 11.7166 10.3081 11.7166 10.3077C11.7166 10.3081 11.7166 10.3086 11.7166 10.3091ZM11.7213 10.1272C11.7213 10.1263 11.7213 10.1255 11.7213 10.1245C11.7213 10.1255 11.7213 10.1263 11.7213 10.1272ZM11.7217 10.1219C11.7217 10.1201 11.7217 10.1185 11.7217 10.1167C11.7217 10.1185 11.7217 10.1201 11.7217 10.1219ZM11.7217 10.1154C11.7865 8.96579 12.4116 8.30177 13.2958 8.29785C12.9124 8.30009 12.5785 8.42598 12.3171 8.66153V8.66109L12.3139 8.66422C12.2864 8.68906 12.2602 8.71536 12.2344 8.74244C11.9406 9.05319 11.7553 9.5187 11.7217 10.1154Z" fill="#404040"/>
<path d="M11.7166 10.4782V10.3148C11.7166 10.3125 11.7166 10.3108 11.7166 10.3086C11.7166 10.3081 11.7166 10.3077 11.7166 10.3073C11.7166 10.2456 11.7182 10.1853 11.7213 10.1268C11.7213 10.1258 11.7213 10.125 11.7213 10.1241C11.7213 10.1233 11.7213 10.1224 11.7217 10.1216C11.7217 10.1197 11.7217 10.118 11.7217 10.1162C11.7217 10.1158 11.7217 10.1154 11.7217 10.1149C11.7553 9.51826 11.9406 9.05275 12.2344 8.742L12.3162 8.82413C11.9406 9.16297 11.7166 9.72803 11.7166 10.4782ZM12.3139 8.66378L12.3171 8.66064C12.3162 8.66199 12.3149 8.66288 12.3139 8.66378Z" fill="url(#paint10_linear_2_778)"/>
<path d="M30.8013 18.0665L14.559 8.83767C14.1087 8.58242 13.6825 8.46134 13.3031 8.46134C12.9163 8.46134 12.5788 8.58723 12.3153 8.82457L12.2334 8.74244C12.2593 8.71536 12.2854 8.68906 12.313 8.66422C12.3139 8.66332 12.3153 8.66243 12.3161 8.66153C12.5775 8.42598 12.9114 8.30009 13.2948 8.29785C13.2957 8.29785 13.2969 8.29785 13.2983 8.29785C13.3001 8.29785 13.3013 8.29785 13.3031 8.29785C13.6825 8.29785 14.1087 8.41893 14.559 8.67429L30.9058 17.9622L30.9053 17.9624L30.8013 18.0665Z" fill="url(#paint11_linear_2_778)"/>
<path d="M144.165 0.773438H8.01742C4.15482 0.773438 1.02356 3.9047 1.02356 7.7673V37.6078C1.02356 41.4704 4.15482 44.6017 8.01742 44.6017H144.165C148.027 44.6017 151.159 41.4704 151.159 37.6078V7.7673C151.159 3.9047 148.027 0.773438 144.165 0.773438Z" stroke="#A6A6A6" stroke-width="0.932515"/>
</g>
<defs>
<linearGradient id="paint0_linear_2_778" x1="24.9513" y1="10.0534" x2="6.17132" y2="28.8333" gradientUnits="userSpaceOnUse">
<stop stop-color="#00A0FF"/>
<stop offset="0.00657445" stop-color="#00A1FF"/>
<stop offset="0.2601" stop-color="#00BEFF"/>
<stop offset="0.5122" stop-color="#00D2FF"/>
<stop offset="0.7604" stop-color="#00DFFF"/>
<stop offset="1" stop-color="#00E3FF"/>
</linearGradient>
<linearGradient id="paint1_linear_2_778" x1="38.4191" y1="22.6893" x2="11.3422" y2="22.6893" gradientUnits="userSpaceOnUse">
<stop stop-color="#FFE000"/>
<stop offset="0.4087" stop-color="#FFBD00"/>
<stop offset="0.7754" stop-color="#FFA500"/>
<stop offset="1" stop-color="#FF9C00"/>
</linearGradient>
<linearGradient id="paint2_linear_2_778" x1="28.3384" y1="25.2569" x2="2.8714" y2="50.7239" gradientUnits="userSpaceOnUse">
<stop stop-color="#FF3A44"/>
<stop offset="1" stop-color="#C31162"/>
</linearGradient>
<linearGradient id="paint3_linear_2_778" x1="8.72195" y1="0.504559" x2="20.094" y2="11.8766" gradientUnits="userSpaceOnUse">
<stop stop-color="#32A071"/>
<stop offset="0.0685" stop-color="#2DA771"/>
<stop offset="0.4762" stop-color="#15CF74"/>
<stop offset="0.8009" stop-color="#06E775"/>
<stop offset="1" stop-color="#00F076"/>
</linearGradient>
<linearGradient id="paint4_linear_2_778" x1="38.4184" y1="22.6892" x2="11.3423" y2="22.6892" gradientUnits="userSpaceOnUse">
<stop stop-color="#CCB300"/>
<stop offset="0.4087" stop-color="#CC9700"/>
<stop offset="0.7754" stop-color="#CC8400"/>
<stop offset="1" stop-color="#CC7D00"/>
</linearGradient>
<linearGradient id="paint5_linear_2_778" x1="28.3378" y1="25.2566" x2="2.87084" y2="50.7236" gradientUnits="userSpaceOnUse">
<stop stop-color="#CC2E36"/>
<stop offset="1" stop-color="#9C0E4E"/>
</linearGradient>
<linearGradient id="paint6_linear_2_778" x1="24.9513" y1="10.0532" x2="6.17131" y2="28.8331" gradientUnits="userSpaceOnUse">
<stop stop-color="#008DE0"/>
<stop offset="0.00657445" stop-color="#008DE0"/>
<stop offset="0.2601" stop-color="#00A7E0"/>
<stop offset="0.5122" stop-color="#00B8E0"/>
<stop offset="0.7604" stop-color="#00C4E0"/>
<stop offset="1" stop-color="#00C7E0"/>
</linearGradient>
<linearGradient id="paint7_linear_2_778" x1="28.338" y1="25.257" x2="2.87089" y2="50.7244" gradientUnits="userSpaceOnUse">
<stop stop-color="#E0333C"/>
<stop offset="1" stop-color="#AB0F56"/>
</linearGradient>
<linearGradient id="paint8_linear_2_778" x1="38.4172" y1="22.6889" x2="11.3404" y2="22.6889" gradientUnits="userSpaceOnUse">
<stop stop-color="#E0C500"/>
<stop offset="0.4087" stop-color="#E0A600"/>
<stop offset="0.7754" stop-color="#E09100"/>
<stop offset="1" stop-color="#E08900"/>
</linearGradient>
<linearGradient id="paint9_linear_2_778" x1="38.4177" y1="22.6892" x2="11.3408" y2="22.6892" gradientUnits="userSpaceOnUse">
<stop stop-color="#FFE840"/>
<stop offset="0.4087" stop-color="#FFCE40"/>
<stop offset="0.7754" stop-color="#FFBC40"/>
<stop offset="1" stop-color="#FFB540"/>
</linearGradient>
<linearGradient id="paint10_linear_2_778" x1="24.9512" y1="10.0533" x2="6.17132" y2="28.8331" gradientUnits="userSpaceOnUse">
<stop stop-color="#40B8FF"/>
<stop offset="0.00657445" stop-color="#40B9FF"/>
<stop offset="0.2601" stop-color="#40CEFF"/>
<stop offset="0.5122" stop-color="#40DDFF"/>
<stop offset="0.7604" stop-color="#40E7FF"/>
<stop offset="1" stop-color="#40EAFF"/>
</linearGradient>
<linearGradient id="paint11_linear_2_778" x1="8.72173" y1="0.504564" x2="20.0938" y2="11.8766" gradientUnits="userSpaceOnUse">
<stop stop-color="#65B895"/>
<stop offset="0.0685" stop-color="#62BD95"/>
<stop offset="0.4762" stop-color="#50DB97"/>
<stop offset="0.8009" stop-color="#44ED98"/>
<stop offset="1" stop-color="#40F498"/>
</linearGradient>
<clipPath id="clip0_2_778">
<rect width="152" height="45" fill="white" transform="translate(0 0.1875)"/>
</clipPath>
</defs>
</svg>
