<svg width="45" height="46" viewBox="0 0 45 46" fill="none" xmlns="http://www.w3.org/2000/svg">
<g clip-path="url(#clip0_2_814)">
<path d="M35.25 0.1875H9.75C4.36522 0.1875 0 4.55272 0 9.9375V35.4375C0 40.8223 4.36522 45.1875 9.75 45.1875H35.25C40.6348 45.1875 45 40.8223 45 35.4375V9.9375C45 4.55272 40.6348 0.1875 35.25 0.1875Z" fill="#FFD02F"/>
<path fill-rule="evenodd" clip-rule="evenodd" d="M31.2577 5.8125H26.3186L30.4344 13.0447L21.3796 5.8125H16.4406L20.968 14.6518L11.5015 5.8125H6.5625L11.5015 17.0625L6.5625 39.5625H11.5015L20.968 15.4553L16.4406 39.5625H21.3796L30.4344 13.8482L26.3186 39.5625H31.2577L40.3125 11.4375L31.2577 5.8125Z" fill="#050038"/>
</g>
<defs>
<clipPath id="clip0_2_814">
<rect width="45" height="45" fill="white" transform="translate(0 0.1875)"/>
</clipPath>
</defs>
</svg>
