<svg width="54" height="64" viewBox="0 0 54 64" fill="none" xmlns="http://www.w3.org/2000/svg">
<g clip-path="url(#clip0_2_404)">
<path d="M24.4873 36.6874H30.9597V34.5268H30.249C30.249 35.3532 29.6445 35.9625 28.7212 35.9625H27.7247V32.737H28.7991V32.0214H24.4873V32.737H25.5736V35.9625H24.4873V36.6851V36.6874Z" fill="#050038"/>
<path d="M34.072 36.6898L36.5891 36.6922L38.7261 32.7392H39.7981V32.0214H36.575V32.7392H37.5077L35.9492 35.6153L34.3719 32.7392H35.5029V32.0214H30.8275L30.8251 32.7392H31.8972L34.072 36.6898Z" fill="#050038"/>
<path d="M11.5987 32.0214H6.92326L6.9209 32.7392H7.99058L10.1677 36.6898L12.6849 36.6922L14.8219 32.7392H15.8939V32.0214H12.6707V32.7392H13.6011L12.045 35.6153L10.4676 32.7392H11.5987V32.0214Z" fill="#050038"/>
<path d="M16.5198 34.3594C16.5198 35.7338 17.6273 36.827 19.847 36.827C22.0666 36.827 23.1623 35.7338 23.1623 34.3594C23.1623 33.004 22.0005 31.9225 19.8329 31.9225C17.6675 31.9225 16.5176 33.004 16.5176 34.3594H16.5198ZM20.9898 34.3712C20.9757 35.2189 20.6238 36.1021 19.8115 36.0879C19.0205 36.0737 18.6734 35.2001 18.6876 34.3311C18.7042 33.4315 19.1339 32.6474 19.8754 32.6593C20.6168 32.6734 21.0063 33.4716 20.9922 34.3712H20.9898Z" fill="#050038"/>
<path d="M40.416 34.3594C40.416 35.7338 41.5235 36.827 43.7432 36.827C45.9628 36.827 47.0584 35.7338 47.0584 34.3594C47.0584 33.004 45.8967 31.9225 43.7313 31.9225C41.566 31.9225 40.416 33.004 40.416 34.3594ZM43.7714 32.6593C44.5105 32.6734 44.9025 33.4716 44.886 34.3712C44.8695 35.2189 44.52 36.1021 43.7077 36.0879C42.9167 36.0737 42.5695 35.2001 42.5837 34.3311C42.6002 33.4315 43.03 32.6474 43.7714 32.6593Z" fill="#050038"/>
<path d="M48.9336 19.5161L46.2251 22.2245C48.5463 25.8067 49.897 30.0783 49.897 34.6664C49.897 47.3159 39.6418 57.5712 26.9922 57.5712C14.3426 57.5712 4.08736 47.3159 4.08736 34.6664C4.08736 22.0168 14.3426 11.7616 26.9922 11.7616C31.5897 11.7616 35.8708 13.1169 39.46 15.45L42.1684 12.7415C37.8614 9.75442 32.631 8.00232 26.9922 8.00232C12.267 8.00232 0.328125 19.9388 0.328125 34.6664C0.328125 49.3916 12.2646 61.3304 26.9922 61.3304C41.7174 61.3304 53.6562 49.394 53.6562 34.6664C53.6562 29.0393 51.9112 23.8185 48.9359 19.5161H48.9336Z" fill="#050038"/>
<path d="M40.4028 9.05243V9.80097C42.0202 10.677 43.5409 11.7113 44.9506 12.873L41.1513 16.6724C42.5846 17.7964 43.8786 19.0904 45.005 20.5213L48.7996 16.7267C49.9637 18.1387 50.998 19.6618 51.8741 21.2558H52.6037V9.05243H40.4004H40.4028Z" fill="#050038"/>
</g>
<defs>
<clipPath id="clip0_2_404">
<rect width="53.3281" height="63.9938" fill="white" transform="translate(0.328125 0.00311279)"/>
</clipPath>
</defs>
</svg>
